<?xml version="1.0" encoding="UTF-8" standalone="no"?>
<svg width="100%" height="100%" viewBox="0 0 170 170" version="1.1" xmlns="http://www.w3.org/2000/svg">
  <defs>
    <style>
      .stroke { fill: none; stroke: #111827; stroke-width: 8; stroke-linecap: round; stroke-linejoin: round; }
      .fill { fill: #111827; }
    </style>
  </defs>
  <rect x="20" y="20" width="130" height="130" rx="26" class="stroke" />
  <path d="M54 56H116" class="stroke" />
  <path d="M54 85H116" class="stroke" />
  <path d="M54 114H116" class="stroke" />
  <circle cx="54" cy="56" r="7" class="fill" />
  <circle cx="116" cy="85" r="7" class="fill" />
  <circle cx="54" cy="114" r="7" class="fill" />
  <path d="M110 48c10 7 17 18 17 31 0 10-4 19-10 27" class="stroke" />
  <path d="M120 100l-3 12-12-3" class="stroke" />
  <path d="M60 125c-10-7-17-18-17-31 0-10 4-19 10-27" class="stroke" />
  <path d="M50 73l3-12 12 3" class="stroke" />
</svg>
