<?xml version="1.0" encoding="UTF-8" standalone="no"?>
<svg width="100%" height="100%" viewBox="0 0 170 170" version="1.1" xmlns="http://www.w3.org/2000/svg">
  <defs>
    <style>
      .stroke { fill: none; stroke: #111827; stroke-width: 8; stroke-linecap: round; stroke-linejoin: round; }
      .fill { fill: #111827; }
    </style>
  </defs>
  <circle cx="49" cy="52" r="14" class="stroke" />
  <path d="M49 24V34" class="stroke" />
  <path d="M49 70V80" class="stroke" />
  <path d="M21 52H31" class="stroke" />
  <path d="M67 52H77" class="stroke" />
  <path d="M29 32L36 39" class="stroke" />
  <path d="M62 65L69 72" class="stroke" />
  <path d="M29 72L36 65" class="stroke" />
  <path d="M62 39L69 32" class="stroke" />
  <path d="M76 58C91 58 102 60 110 64" class="stroke" />
  <path d="M102 54L117 66L98 71" class="stroke" />
  <path d="M118 40L136 52L131 60H139V78H128V118H139V132H102V118H113V78H102V60H110Z" class="stroke" />
  <circle cx="58" cy="119" r="8" class="stroke" />
  <circle cx="89" cy="140" r="8" class="stroke" />
  <path d="M50 148L97 111" class="stroke" />
  <circle cx="58" cy="119" r="3" class="fill" />
  <circle cx="89" cy="140" r="3" class="fill" />
</svg>